<?xml version="1.0" standalone="no"?>
<!DOCTYPE svg PUBLIC "-//W3C//DTD SVG 20010904//EN"
 "http://www.w3.org/TR/2001/REC-SVG-20010904/DTD/svg10.dtd">
<svg version="1.0" xmlns="http://www.w3.org/2000/svg"
 width="1024.000000pt" height="1024.000000pt" viewBox="0 0 1024.000000 1024.000000"
 preserveAspectRatio="xMidYMid meet">
<metadata>
Created by potrace 1.14, written by Peter Selinger 2001-2017
</metadata>
<g transform="translate(0.000000,1024.000000) scale(0.100000,-0.100000)"
fill="#000000" stroke="none">
<path d="M1255 9889 c-126 -14 -157 -20 -255 -57 -8 -3 -17 -6 -20 -6 -18 -4
-115 -57 -165 -90 -108 -71 -157 -114 -225 -196 -19 -23 -39 -47 -45 -53 -21
-25 -81 -124 -107 -177 -28 -59 -59 -150 -79 -240 -10 -44 -13 -847 -14 -3910
-1 -2120 1 -3882 6 -3915 13 -106 20 -139 41 -200 44 -126 104 -233 188 -336
134 -163 376 -312 560 -343 19 -3 46 -9 60 -13 36 -9 7722 -11 7800 -2 36 4
81 11 100 14 45 8 184 59 241 88 49 25 162 100 188 126 10 9 33 30 52 47 44
39 94 98 128 149 14 22 32 46 39 53 33 35 107 223 129 326 15 75 17 364 18
3921 1 3520 -1 3929 -20 4020 -20 101 -85 254 -144 340 -42 62 -128 164 -159
188 -12 10 -28 24 -35 31 -30 30 -157 114 -217 143 -66 32 -173 70 -222 78
-15 3 -55 9 -88 14 -71 9 -7666 10 -7755 0z m4400 -433 c61 -4 146 -9 190 -11
44 -3 98 -7 120 -9 22 -2 81 -7 130 -11 100 -7 163 -13 215 -20 19 -2 53 -7
75 -10 108 -13 273 -35 300 -40 17 -3 44 -7 60 -10 17 -3 41 -7 55 -10 13 -3
42 -7 65 -10 22 -4 68 -13 101 -20 34 -8 75 -17 90 -20 59 -11 80 -15 104 -20
14 -3 35 -8 48 -11 52 -11 334 -88 422 -116 306 -96 548 -196 739 -305 56 -32
219 -142 242 -163 149 -136 204 -204 253 -312 58 -127 60 -143 62 -618 1 -239
2 -437 3 -440 0 -3 48 -6 106 -6 58 -1 120 -7 138 -14 155 -58 249 -160 282
-305 15 -65 18 -1445 3 -1526 -27 -147 -148 -276 -296 -314 -30 -8 -57 -14
-60 -14 -4 1 -45 1 -92 0 l-85 -1 0 -1443 c-1 -1547 1 -1482 -51 -1587 -12
-25 -44 -70 -70 -99 -78 -87 -178 -125 -340 -130 -43 -1 -80 -4 -81 -5 -1 -1
-3 -140 -3 -308 -1 -336 -6 -374 -63 -483 -44 -84 -155 -193 -237 -232 -119
-57 -144 -60 -515 -60 -187 0 -354 4 -373 9 -19 5 -43 11 -53 13 -11 2 -49 19
-86 37 -136 67 -269 236 -289 369 -4 30 -9 57 -10 62 -1 4 -2 140 -3 302 l-1
295 -1630 0 -1630 0 -1 -292 c0 -161 -2 -302 -4 -313 -2 -11 -6 -38 -10 -60
-19 -126 -155 -298 -286 -362 -112 -55 -151 -60 -509 -60 -362 0 -413 5 -520
59 -83 42 -195 152 -237 233 -57 109 -62 147 -63 483 0 168 -2 307 -4 309 -2
2 -26 5 -54 7 -146 11 -297 103 -391 239 -55 80 -73 129 -89 242 -4 28 -7 663
-7 1413 l0 1362 -90 1 c-49 0 -99 2 -109 4 -169 32 -305 165 -335 330 -12 66
-11 1439 1 1507 23 127 108 236 228 295 55 26 108 35 220 37 l85 1 1 450 c1
373 4 458 17 498 8 26 13 47 11 47 -2 0 17 40 42 89 43 86 121 185 187 240 18
14 39 33 47 41 25 26 151 114 225 157 125 73 352 183 378 183 7 0 17 4 23 8
19 18 370 136 534 181 130 35 264 68 305 77 22 4 42 8 45 9 13 3 68 15 90 19
14 3 60 12 102 20 65 13 148 28 233 41 11 2 36 6 55 9 31 5 130 18 245 32 22
2 56 7 75 10 19 2 60 6 90 8 30 3 82 7 115 10 158 15 257 22 455 31 74 4 136
8 137 9 5 5 833 -2 928 -8z"/>
<path d="M2840 7824 c-60 -11 -126 -37 -189 -75 -37 -22 -151 -142 -175 -185
-28 -50 -55 -118 -62 -157 -10 -54 -11 -2327 -2 -2376 5 -25 12 -57 14 -71 9
-46 67 -140 122 -201 69 -75 141 -122 240 -156 l77 -26 2250 0 c2245 1 2286 1
2360 32 128 54 240 151 297 257 20 38 39 80 42 94 3 14 8 36 12 50 4 14 8 545
9 1180 1 889 -1 1169 -11 1215 -11 55 -33 110 -69 176 -20 35 -118 133 -169
168 -39 27 -136 74 -136 66 0 -2 -15 1 -32 7 -50 17 -4489 19 -4578 2z"/>
<path d="M2535 3741 c-58 -17 -131 -50 -163 -74 -61 -46 -153 -153 -185 -216
-20 -39 -35 -71 -33 -71 2 0 -2 -19 -9 -43 -19 -64 -12 -209 14 -284 77 -224
288 -378 517 -376 189 2 363 101 461 264 63 105 77 157 77 289 -1 62 -7 104
-24 155 -13 39 -26 72 -29 75 -3 3 -13 19 -21 35 -25 50 -151 168 -216 202
-34 18 -85 39 -115 47 -78 19 -202 18 -274 -3z"/>
<path d="M7425 3741 c-124 -34 -239 -119 -314 -231 -102 -153 -115 -363 -34
-524 168 -332 590 -413 854 -163 110 104 169 230 175 372 5 130 -27 234 -105
338 -57 77 -178 177 -213 177 -8 0 -18 4 -23 9 -20 19 -139 42 -208 40 -40 -1
-99 -9 -132 -18z"/>
</g>
</svg>
