<svg xmlns="http://www.w3.org/2000/svg" xmlns:xlink="http://www.w3.org/1999/xlink" width="74.694" height="32.759" viewBox="0 0 74.694 32.759"><defs><style>.a,.c,.d,.e,.f,.g,.h{fill:none;}.b{clip-path:url(#a);}.c,.d,.e,.f,.g,.h{stroke:#ffffff;stroke-miterlimit:10;}.c{stroke-width:1.366px;}.d{stroke-width:1.366px;}.e{stroke-width:1.366px;}.f{stroke-width:1.366px;}.g{stroke-width:1.366px;}.h{stroke-width:1.366px;}</style><clipPath id="a"><rect class="a" width="74.694" height="32.759"/></clipPath></defs><g transform="translate(-15.653 16.379)"><g class="b" transform="translate(15.653 -16.379)"><path class="c" d="M68.32,2.632a93.756,93.756,0,0,1-9.422.956c-16.386.068-32.7.068-49.09.068H8.852a1.229,1.229,0,0,0-1.229,1.3v7.92A1.229,1.229,0,0,0,8.783,14.1h49.91c3.209,0,6.35.41,9.559.683l6.008.478c0,.273.068.478.068.683v9.7c0,1.161-.273,1.5-1.5,1.5h-5.8a.751.751,0,0,1-.888-.614,6.486,6.486,0,0,0-12.426,0,.772.772,0,0,1-.888.614H22.439a.751.751,0,0,1-.819-.614,6.486,6.486,0,0,0-12.426,0,.751.751,0,0,1-.888.683H2.98C1.614,27.211,1,26.6,1,25.163V6.523A5.179,5.179,0,0,1,6.462.993H63.541a6.9,6.9,0,0,1,4.3,1.161Z" transform="translate(-0.317 -0.31)"/><path class="d" d="M89.2,8.024l4.233-.546L97.461,7a.888.888,0,0,1,.683.341l3.209,6.9v.2L96.642,14.1l-6.623-.546c-.614-.068-.819-.273-.819-.888Z" transform="translate(-28.298 -2.221)"/><rect class="e" width="11.675" height="5.162" transform="translate(46.564 5.94)"/><rect class="f" width="10.378" height="5.148" transform="translate(21.712 5.94)"/><rect class="f" width="9.081" height="5.128" transform="translate(34.821 6.008)"/><path class="c" d="M14.5,13.921V8.8h9.081v5.121Z" transform="translate(-4.6 -2.792)"/><path class="g" d="M20.36,43.383a3.892,3.892,0,1,1,3.892-3.892A3.892,3.892,0,0,1,20.36,43.383Z" transform="translate(-5.203 -11.294)"/><path class="h" d="M85.492,43.383a3.892,3.892,0,1,1,3.892-3.892A3.892,3.892,0,0,1,85.492,43.383Z" transform="translate(-25.887 -11.294)"/></g></g></svg>